<?xml version="1.0" standalone="no"?>
<!DOCTYPE svg PUBLIC "-//W3C//DTD SVG 20010904//EN"
 "http://www.w3.org/TR/2001/REC-SVG-20010904/DTD/svg10.dtd">
<svg version="1.0" xmlns="http://www.w3.org/2000/svg"
 width="744.000000pt" height="1093.000000pt" viewBox="0 0 744.000000 1093.000000"
 preserveAspectRatio="xMidYMid meet">

<g transform="translate(0.000000,1093.000000) scale(0.100000,-0.100000)"
fill="#000000" stroke="none">
<path d="M3180 8354 c-336 -23 -544 -47 -724 -84 -156 -32 -151 -26 -182 -185
-13 -71 -19 -171 -25 -465 -4 -206 -12 -429 -18 -495 -6 -66 -13 -150 -16
-187 -3 -37 -13 -104 -21 -150 -8 -46 -19 -110 -24 -143 -5 -33 -20 -105 -33
-160 -14 -55 -32 -134 -42 -175 -27 -122 -83 -347 -114 -460 -41 -148 -126
-465 -160 -595 -16 -60 -38 -155 -49 -210 -11 -55 -28 -138 -38 -185 -14 -68
-18 -134 -18 -330 0 -215 3 -258 22 -350 49 -232 168 -506 299 -693 86 -121
221 -275 329 -373 183 -166 286 -269 305 -306 35 -68 26 -127 -37 -258 -251
-517 -359 -810 -339 -919 9 -49 47 -112 92 -151 49 -43 118 -73 228 -98 207
-47 218 -47 1060 -47 730 0 810 2 915 18 221 36 299 65 362 135 76 84 81 177
21 357 -62 183 -94 259 -226 529 -186 382 -190 361 153 705 271 273 367 395
467 596 121 242 172 435 198 753 25 315 -21 565 -242 1307 -64 214 -141 562
-188 845 -9 58 -21 130 -27 160 -52 299 -96 767 -104 1115 -7 282 -19 336 -84
370 -48 25 -472 81 -830 110 -174 15 -789 27 -910 19z m670 -74 c354 -18 731
-59 795 -86 20 -8 35 -20 32 -27 -7 -23 -125 -28 -522 -23 -485 7 -953 29
-1155 56 -41 6 -140 11 -220 12 -179 2 -212 11 -99 26 332 46 776 62 1169 42z
m-395 -186 c205 -9 554 -15 843 -15 499 0 533 -2 547 -37 5 -13 13 -99 45
-507 15 -188 36 -352 90 -690 30 -191 45 -272 101 -542 13 -67 59 -253 75
-308 8 -27 21 -72 29 -100 39 -134 79 -269 105 -350 185 -593 207 -1015 73
-1415 -31 -94 -45 -105 -102 -75 -71 36 -317 60 -801 77 -669 23 -1931 10
-2185 -23 -44 -6 -111 -14 -150 -18 -38 -4 -89 -18 -112 -29 -23 -12 -49 -19
-57 -16 -8 3 -29 39 -45 79 -59 141 -61 159 -61 527 0 353 11 488 49 628 54
193 82 290 96 335 52 162 142 511 191 740 8 39 19 88 24 110 5 22 19 90 30
150 11 61 26 135 32 165 6 30 14 82 18 115 5 33 18 123 29 200 11 77 25 187
31 245 6 58 13 112 16 121 2 8 9 80 14 160 6 79 14 198 19 264 4 67 13 130 19
142 29 53 102 62 632 81 30 1 213 -5 405 -14z m1180 -4059 c248 -20 389 -40
435 -64 94 -48 23 -61 -455 -78 -601 -23 -2087 -19 -2304 5 -93 10 -156 22
-158 28 -6 17 55 51 122 69 32 8 130 20 217 26 87 6 188 14 225 18 38 4 439 9
893 10 670 1 863 -2 1025 -14z m-655 -1334 c58 -16 -22 -25 -240 -26 -233 -1
-280 2 -280 16 0 4 79 8 176 8 97 0 179 3 182 6 8 7 132 4 162 -4z m67 -526
c283 -45 353 -66 353 -104 0 -30 -20 -39 -145 -62 -115 -20 -140 -21 -565 -16
-438 6 -709 22 -731 44 -16 16 -7 44 21 64 45 33 350 82 580 93 138 6 388 -3
487 -19z m213 -435 c18 -5 21 -9 10 -13 -52 -20 -113 -27 -253 -27 -135 0
-158 2 -164 16 -3 9 0 20 8 25 17 11 364 10 399 -1z m60 -169 c66 -5 75 -8 75
-26 0 -30 -38 -43 -191 -66 -124 -18 -180 -20 -524 -18 -367 1 -419 4 -588 31
-81 12 -135 42 -140 76 l-3 22 648 -6 c356 -4 682 -9 723 -13z"/>
</g>
</svg>
